<?xml version="1.0" encoding="UTF-8"?> <svg xmlns="http://www.w3.org/2000/svg" viewBox="0 0 300.04 181.44"> <defs> <style>.cls-1{fill:#d51019;}</style> </defs> <title>RED_logo2</title> <g id="Слой_2" data-name="Слой 2"> <g id="Слой_1-2" data-name="Слой 1"> <path d="M3906.42,1200.39v-17h7.13a6.5,6.5,0,0,1,4.85,1.67,4.32,4.32,0,0,1,1.21,3.18,4.26,4.26,0,0,1-1.36,3.3,6.57,6.57,0,0,1-3.61,1.55l5.6,7.27h-1.69l-5.41-7h-5.46v7Zm1.26-8.17h5.73a5.66,5.66,0,0,0,3.56-1,3.45,3.45,0,0,0,1.38-2.91,3.28,3.28,0,0,0-1.28-2.72,5.87,5.87,0,0,0-3.59-1h-5.8Z" transform="translate(-3906.42 -1019.27)"></path> <path d="M3938.36,1198.11a8.61,8.61,0,0,1-12.3,0,8.89,8.89,0,0,1-2.42-6.21,8.71,8.71,0,0,1,2.42-6.18,8.5,8.5,0,0,1,12.32.09,9.19,9.19,0,0,1,0,12.37Zm-11.3-.77a6.81,6.81,0,0,0,5.19,2.23,6.7,6.7,0,0,0,5.14-2.21,8.13,8.13,0,0,0,0-10.84,7.12,7.12,0,0,0-10.33,0,8.2,8.2,0,0,0,0,10.84" transform="translate(-3906.42 -1019.27)"></path> <path d="M3945.53,1200.39v-17h7a6.44,6.44,0,0,1,4,1.16,3.67,3.67,0,0,1,1.5,3.06,4.08,4.08,0,0,1-2.89,4c2.43.66,3.83,2,3.83,4.1a4,4,0,0,1-1.6,3.4,7.13,7.13,0,0,1-4.43,1.26Zm1.27-9.14h5.69a5.08,5.08,0,0,0,3.16-.92,3.1,3.1,0,0,0,1.21-2.62,2.7,2.7,0,0,0-1.12-2.28,5.11,5.11,0,0,0-3.25-.82h-5.69Zm0,8H3953a5.69,5.69,0,0,0,3.47-1,3,3,0,0,0,1.29-2.57,2.7,2.7,0,0,0-1.34-2.42,7,7,0,0,0-3.88-.85h-5.69Z" transform="translate(-3906.42 -1019.27)"></path> <path d="M3977.45,1198.11a8.61,8.61,0,0,1-12.3,0,8.89,8.89,0,0,1-2.42-6.21,8.71,8.71,0,0,1,2.42-6.18,8.5,8.5,0,0,1,12.32.09,9.19,9.19,0,0,1,0,12.37Zm-11.3-.77a6.81,6.81,0,0,0,5.19,2.23,6.7,6.7,0,0,0,5.14-2.21,8.13,8.13,0,0,0,0-10.84,7.14,7.14,0,0,0-10.08-.25c-.09.08-.17.17-.25.25a8.2,8.2,0,0,0,0,10.84Z" transform="translate(-3906.42 -1019.27)"></path> <polygon points="81.57 181.12 81.57 165.34 75.66 165.34 75.66 164.15 88.75 164.15 88.75 165.31 82.83 165.31 82.83 181.12 81.57 181.12"></polygon> <rect x="93.24" y="164.15" width="1.33" height="16.97"></rect> <path d="M4014.31,1200.71a8.08,8.08,0,0,1-6-2.43,9.25,9.25,0,0,1,0-12.43,8,8,0,0,1,6.06-2.58,8.13,8.13,0,0,1,3.54.71,11.48,11.48,0,0,1,3,1.87l-.83.84a8,8,0,0,0-5.72-2.42,6.7,6.7,0,0,0-5.12,2.21,8.22,8.22,0,0,0,0,10.86,6.78,6.78,0,0,0,5.12,2.21,7.19,7.19,0,0,0,3.13-.66,10.2,10.2,0,0,0,2.71-2l.85.83a11.63,11.63,0,0,1-3.05,2.2,8.29,8.29,0,0,1-3.66.78" transform="translate(-3906.42 -1019.27)"></path> <path d="M4030.75,1200.66a9.93,9.93,0,0,1-6.84-2.69l.82-1a9.82,9.82,0,0,0,2.84,1.94,8.21,8.21,0,0,0,3.25.58,4.81,4.81,0,0,0,3.08-.94,3.11,3.11,0,0,0,1.21-2.43,2.72,2.72,0,0,0-1-2.23,8.87,8.87,0,0,0-3.78-1.38,10,10,0,0,1-4.39-1.87,3.78,3.78,0,0,1-1.33-3.08,3.91,3.91,0,0,1,1.55-3.17,6,6,0,0,1,4-1.24,8.75,8.75,0,0,1,3.13.51,9.76,9.76,0,0,1,2.69,1.55l-.8,1a7.46,7.46,0,0,0-5-1.92,4.61,4.61,0,0,0-3,1,2.88,2.88,0,0,0-1.14,2.3,2.85,2.85,0,0,0,1,2.28,9.86,9.86,0,0,0,3.93,1.43,9.79,9.79,0,0,1,4.05,1.82,3.7,3.7,0,0,1,1.33,3,4.14,4.14,0,0,1-1.57,3.34,6.23,6.23,0,0,1-3.95,1.19" transform="translate(-3906.42 -1019.27)"></path> <polygon points="150.56 181.12 150.56 164.15 162.69 164.15 162.69 165.31 151.82 165.31 151.82 171.98 161.52 171.98 161.52 173.14 151.82 173.14 151.82 179.96 162.76 179.96 162.76 181.12 150.56 181.12"></polygon> <path d="M4073.74,1200.39v-17h5.65a8.92,8.92,0,0,1,6.47,2.43,8.54,8.54,0,0,1,.06,12.07l-.06,0a9,9,0,0,1-6.5,2.42Zm1.26-1.16h4.39a7.77,7.77,0,0,0,5.6-2.08,7.52,7.52,0,0,0,0-10.46,7.68,7.68,0,0,0-5.6-2.11H4075Z" transform="translate(-3906.42 -1019.27)"></path> <path d="M4099.86,1200.69a6.82,6.82,0,0,1-5-1.92,7.27,7.27,0,0,1-1.91-5.41v-9.94h1.26v9.7a6.63,6.63,0,0,0,1.52,4.85,6.24,6.24,0,0,0,8.37,0,6.45,6.45,0,0,0,1.5-4.61v-9.94h1.26v9.7a7.62,7.62,0,0,1-1.89,5.53,6.77,6.77,0,0,1-5.06,2" transform="translate(-3906.42 -1019.27)"></path> <path d="M4119.81,1200.71a8,8,0,0,1-6-2.43,9.2,9.2,0,0,1,0-12.46,8,8,0,0,1,6-2.67,8.6,8.6,0,0,1,3.57.71,11.93,11.93,0,0,1,2.95,2.08l-.82.85a8,8,0,0,0-5.72-2.42,6.61,6.61,0,0,0-5.09,2.2,8.15,8.15,0,0,0,0,10.87,6.68,6.68,0,0,0,5.09,2.2,7,7,0,0,0,3.13-.65,10.2,10.2,0,0,0,2.71-2l.85.82a11.67,11.67,0,0,1-3,2.21,8.49,8.49,0,0,1-3.62.68" transform="translate(-3906.42 -1019.27)"></path> <path d="M4129,1200.39l7.91-17h1.21l7.9,17h-1.38l-2.16-4.85h-10l-2.16,4.85Zm4-5.89H4142l-4.46-9.7Z" transform="translate(-3906.42 -1019.27)"></path> <polygon points="246.2 181.12 246.2 165.34 240.28 165.34 240.28 164.15 253.38 164.15 253.38 165.31 247.46 165.31 247.46 181.12 246.2 181.12"></polygon> <rect x="257.86" y="164.15" width="1.26" height="16.97"></rect> <path d="M4185.28,1198.11a8.6,8.6,0,0,1-12.29,0,8.89,8.89,0,0,1-2.42-6.21,8.71,8.71,0,0,1,2.42-6.18,8.46,8.46,0,0,1,12.29.09,9.19,9.19,0,0,1,0,12.37Zm-11.3-.77a6.91,6.91,0,0,0,5.19,2.23,6.67,6.67,0,0,0,5.14-2.21,8.11,8.11,0,0,0,0-10.84,6.78,6.78,0,0,0-5.16-2.23,6.7,6.7,0,0,0-5.14,2.21,8.15,8.15,0,0,0,0,10.84Z" transform="translate(-3906.42 -1019.27)"></path> <polygon points="285.92 181.12 285.92 164.15 287.11 164.15 298.82 178.91 298.82 164.15 300.03 164.15 300.03 181.12 299.09 181.12 287.13 166.04 287.13 181.12 285.92 181.12"></polygon> <path class="cls-1" d="M3986.77,1038l26.55,5.83v-7.13a17.45,17.45,0,0,0-17.45-17.45h-24.2l16.27,10.65Z" transform="translate(-3906.42 -1019.27)"></path> <polygon class="cls-1" points="64.19 25.6 64.19 26.69 64.19 27.72 64.19 49.52 72.36 52.34 78.17 12.16 59.6 0 31.41 0 32.09 15.6 64.19 25.6"></polygon> <polygon class="cls-1" points="31.43 141.75 44.32 141.75 44.32 123.37 32 128.94 31.43 141.75"></polygon> <polygon class="cls-1" points="15.43 39.29 0 32.51 0 108.75 15.43 101.97 15.43 39.29"></polygon> <polygon class="cls-1" points="72.44 85.53 61.45 89.32 73.77 131.67 83.85 125.07 72.44 85.53"></polygon> <polygon class="cls-1" points="300.04 33 300.04 24.34 284.75 3.03 284.75 18.4 300.04 33"></polygon> <polygon class="cls-1" points="254.87 133.99 254.87 109.06 254.87 105.84 238.28 105.84 238.28 94.69 219.72 114.37 219.72 114.37 215.82 118.5 214.01 118.93 213.71 119.01 210.3 119.83 210.3 119.83 194.1 123.75 194.1 141.75 250.26 141.75 250.52 141.21 254.87 133.99"></polygon> <polygon class="cls-1" points="284.75 138.57 292.79 127.36 300 117.33 300 109.5 284.75 124.06 284.75 138.57"></polygon> <polygon class="cls-1" points="238.28 90.18 238.28 89.95 238.28 52.28 214.2 26.76 194.1 21.89 194.1 120.56 214.2 115.7 238.28 90.18"></polygon> <polygon class="cls-1" points="210.31 22.63 212.01 23.04 214.01 23.53 215.82 23.96 218.99 27.33 238.28 47.77 238.28 35.76 248.16 35.76 254.87 35.76 254.87 32.51 254.87 7.75 250.19 0 248.16 0 194.1 0 194.1 18.71 210.31 22.63"></polygon> <polygon class="cls-1" points="281.65 19.73 281.65 0 258.57 0 253.81 0 257.96 6.9 257.96 36.88 257.96 38.68 258.57 39.54 263.37 46.31 263.37 95.5 257.96 102.98 257.96 104.75 257.96 134.85 253.81 141.75 281.65 141.75 281.65 122.73 300 105.22 300.03 37.27 281.65 19.73"></polygon> <polygon class="cls-1" points="106.89 63.67 106.89 27.75 79.9 21.82 79.9 21.82 79.9 21.82 74.89 56.49 61.74 51.96 44.32 57.39 44.32 22.65 29.09 17.91 28.3 0 0 0 0 0.16 0 29.13 18.53 37.27 18.53 103.99 0 112.14 0 141.75 28.33 141.75 28.99 126.9 44.32 119.97 44.32 82.7 52.01 85.1 58.41 87.09 71.23 82.67 71.23 82.67 74.52 81.54 75.32 84.33 75.59 84.44 75.38 84.52 87.46 126.41 74.68 134.78 76.71 141.75 113.88 141.75 95.33 77.98 106.89 63.67"></polygon> <polygon class="cls-1" points="169.15 52.34 169.15 52.34 169.15 52.34 162.25 52.34 131.91 52.23 131.91 87.89 162.72 87.9 169.15 87.9 169.15 87.9 169.15 87.89 169.16 87.86 169.16 52.37 169.15 52.34"></polygon> <polygon class="cls-1" points="142.64 9.48 142.64 0 131.91 0 131.91 35.76 169.16 35.76 169.16 15.84 142.64 9.48"></polygon> <polygon class="cls-1" points="142.64 133.1 142.64 141.74 131.91 141.74 131.91 105.98 169.16 105.98 169.16 126.7 142.64 133.1"></polygon> <polygon class="cls-1" points="169.16 129.88 169.16 141.74 145.73 141.74 145.73 135.53 169.16 129.88"></polygon> <polygon class="cls-1" points="169.16 12.65 169.16 0 145.73 0 145.73 7.05 169.16 12.65"></polygon> </g> </g> </svg> 