<?xml version="1.0" encoding="UTF-8"?> <svg xmlns="http://www.w3.org/2000/svg" viewBox="0 0 476.15 118.22"> <defs> <style>.cls-1{fill:#fff;}</style> </defs> <title>RED_logo (white)</title> <g id="Слой_2" data-name="Слой 2"> <g id="Слой_1-2" data-name="Слой 1"> <path class="cls-1" d="M289.38,48.06V26.7h9.19a8.22,8.22,0,0,1,6.07,2.13,5.77,5.77,0,0,1,1.65,4.27,5.59,5.59,0,0,1-1.59,4.15,7.82,7.82,0,0,1-4.21,2.08l6.56,8.73h-3l-6.19-8.3h-6.11v8.3Zm2.41-10.47h6.56a6.29,6.29,0,0,0,4-1.19,3.91,3.91,0,0,0,1.53-3.27A3.69,3.69,0,0,0,302.4,30a6.42,6.42,0,0,0-4-1.12h-6.59Z"></path> <path class="cls-1" d="M329.21,45.17a11.08,11.08,0,0,1-15.66,0,11,11,0,0,1-3.05-7.81,11,11,0,0,1,3.08-7.8,11.08,11.08,0,0,1,15.66,0,11,11,0,0,1,3.05,7.82,10.92,10.92,0,0,1-3.08,7.79M315.4,43.63a7.9,7.9,0,0,0,6,2.57,7.8,7.8,0,0,0,6-2.55,8.87,8.87,0,0,0,2.37-6.27,8.81,8.81,0,0,0-2.4-6.26,8.36,8.36,0,0,0-12,0A8.87,8.87,0,0,0,313,37.38a8.81,8.81,0,0,0,2.4,6.25"></path> <path class="cls-1" d="M337.39,48.06V26.7h9.09c2.5,0,4.37.63,5.59,1.89a4.85,4.85,0,0,1,1.37,3.48A5.05,5.05,0,0,1,350.05,37q4.57,1.38,4.58,5.22a5,5,0,0,1-2.11,4.27,9.25,9.25,0,0,1-5.64,1.56Zm2.38-11.84h6.31a5.85,5.85,0,0,0,3.58-1A3.39,3.39,0,0,0,351,32.34a3,3,0,0,0-1.24-2.55,5.7,5.7,0,0,0-3.49-.93h-6.5Zm0,9.67h7.17a6.44,6.44,0,0,0,3.85-1,3.33,3.33,0,0,0,1.4-2.85,3,3,0,0,0-1.45-2.72,7.79,7.79,0,0,0-4.23-.95h-6.74Z"></path> <path class="cls-1" d="M377.18,45.17a11.07,11.07,0,0,1-15.65,0,11,11,0,0,1-3.06-7.81,10.91,10.91,0,0,1,3.09-7.8,11.07,11.07,0,0,1,15.65,0,11,11,0,0,1,3.06,7.82,10.89,10.89,0,0,1-3.09,7.79m-13.81-1.54a8.35,8.35,0,0,0,12,0,8.9,8.9,0,0,0,2.36-6.27,8.85,8.85,0,0,0-2.39-6.26,8.37,8.37,0,0,0-12,0A8.91,8.91,0,0,0,361,37.38a8.8,8.8,0,0,0,2.39,6.25"></path> <polygon class="cls-1" points="391.01 48.06 391.01 28.92 383.84 28.92 383.84 26.7 400.62 26.7 400.62 28.92 393.45 28.92 393.45 48.06 391.01 48.06"></polygon> <rect class="cls-1" x="405.35" y="26.7" width="2.41" height="21.36"></rect> <path class="cls-1" d="M423.78,48.42a10.18,10.18,0,0,1-7.66-3.18,11,11,0,0,1-3.05-7.86,10.92,10.92,0,0,1,3.08-7.83,10.25,10.25,0,0,1,7.73-3.22,10.86,10.86,0,0,1,4.57.87,14,14,0,0,1,3.7,2.58l-1.59,1.71a9.56,9.56,0,0,0-6.72-2.93,7.73,7.73,0,0,0-5.9,2.53,8.85,8.85,0,0,0-2.37,6.29A8.87,8.87,0,0,0,418,43.65a7.75,7.75,0,0,0,5.89,2.55,8.36,8.36,0,0,0,3.67-.77,12.9,12.9,0,0,0,3.23-2.32l1.59,1.68a13.25,13.25,0,0,1-3.78,2.72,11.34,11.34,0,0,1-4.77.91"></path> <path class="cls-1" d="M443.87,48.36A12.73,12.73,0,0,1,435.14,45l1.49-1.77a12.29,12.29,0,0,0,3.44,2.28,9.81,9.81,0,0,0,3.89.74,5.38,5.38,0,0,0,3.44-1,3.22,3.22,0,0,0,1.32-2.67A3,3,0,0,0,447.56,40a11.3,11.3,0,0,0-4.4-1.58,13.09,13.09,0,0,1-5.49-2.23,4.93,4.93,0,0,1-1.68-4A5.2,5.2,0,0,1,438,28a7.64,7.64,0,0,1,5-1.65A11.65,11.65,0,0,1,450.52,29l-1.41,1.87A9.51,9.51,0,0,0,443,28.56a5.19,5.19,0,0,0-3.3,1,3.09,3.09,0,0,0-1.25,2.52,3,3,0,0,0,1.21,2.5,12.64,12.64,0,0,0,4.59,1.65,12.16,12.16,0,0,1,5.29,2.21,4.85,4.85,0,0,1,1.67,3.89,5.36,5.36,0,0,1-2.05,4.38,8,8,0,0,1-5.24,1.66"></path> <polygon class="cls-1" points="289.38 91.47 289.38 70.1 304.82 70.1 304.82 72.3 291.79 72.3 291.79 79.59 303.45 79.59 303.45 81.79 291.79 81.79 291.79 89.27 304.98 89.27 304.98 91.47 289.38 91.47"></polygon> <path class="cls-1" d="M309.83,91.47V70.1h7.42a11.34,11.34,0,0,1,8.18,3,10.76,10.76,0,0,1,0,15.27,11.32,11.32,0,0,1-8.16,3.06Zm2.41-2.23h5a8.74,8.74,0,0,0,6.42-2.4,8.72,8.72,0,0,0,0-12.1,8.69,8.69,0,0,0-6.4-2.41h-5Z"></path> <path class="cls-1" d="M342.24,91.8a8.7,8.7,0,0,1-6.47-2.43,9.27,9.27,0,0,1-2.41-6.85V70.1h2.41V82.37a7.61,7.61,0,0,0,1.72,5.33,7.12,7.12,0,0,0,9.54.07,7.34,7.34,0,0,0,1.71-5.25V70.1h2.41V82.34q0,4.57-2.41,7a8.71,8.71,0,0,1-6.5,2.44"></path> <path class="cls-1" d="M366.62,91.83A10.16,10.16,0,0,1,359,88.64,11.56,11.56,0,0,1,359,73a10.25,10.25,0,0,1,7.72-3.23,11,11,0,0,1,4.58.87,14,14,0,0,1,3.7,2.58l-1.59,1.71A9.62,9.62,0,0,0,366.68,72a7.74,7.74,0,0,0-5.9,2.54,9.48,9.48,0,0,0,0,12.55,7.74,7.74,0,0,0,5.89,2.55,8.36,8.36,0,0,0,3.67-.76,13.16,13.16,0,0,0,3.23-2.32l1.59,1.68a13.11,13.11,0,0,1-3.79,2.71,11.14,11.14,0,0,1-4.76.92"></path> <path class="cls-1" d="M377.55,91.46,387.28,70h2.26l9.74,21.51h-2.6l-2.5-5.64H382.55L380,91.46Zm5.95-7.81h9.74l-4.86-10.89Z"></path> <polygon class="cls-1" points="409.14 91.47 409.14 72.33 401.96 72.33 401.96 70.1 418.75 70.1 418.75 72.33 411.58 72.33 411.58 91.47 409.14 91.47"></polygon> <rect class="cls-1" x="423.48" y="70.1" width="2.41" height="21.36"></rect> <path class="cls-1" d="M449.91,88.58a11.08,11.08,0,0,1-15.66,0,11.47,11.47,0,0,1,0-15.61,11.08,11.08,0,0,1,15.66,0,11.47,11.47,0,0,1,0,15.61M436.1,87a8.36,8.36,0,0,0,12,0,9.42,9.42,0,0,0,0-12.53,7.89,7.89,0,0,0-6-2.57,7.81,7.81,0,0,0-6,2.55,9.42,9.42,0,0,0,0,12.53"></path> <polygon class="cls-1" points="458.09 91.47 458.09 70.1 460.35 70.1 473.8 87.22 473.8 70.1 476.15 70.1 476.15 91.47 474.23 91.47 460.44 73.95 460.44 91.47 458.09 91.47"></polygon> <path class="cls-1" d="M67,15.63,89.15,20.5V14.55A14.54,14.54,0,0,0,74.6,0H54.42L68,8.88Z"></path> <polygon class="cls-1" points="53.53 21.35 53.53 22.26 53.53 23.12 53.53 41.3 60.34 43.65 65.2 10.14 49.7 0 26.19 0 26.76 13.01 53.53 21.35"></polygon> <polygon class="cls-1" points="26.21 118.22 36.97 118.22 36.97 102.89 26.69 107.53 26.21 118.22"></polygon> <polyline class="cls-1" points="0 90.7 12.87 85.05 12.87 32.77 0 27.11"></polyline> <polygon class="cls-1" points="60.42 71.33 51.25 74.5 61.53 109.81 69.94 104.31 60.42 71.33"></polygon> <polygon class="cls-1" points="250.23 27.52 250.24 20.3 237.48 2.53 237.48 15.35 250.23 27.52"></polygon> <polygon class="cls-1" points="212.56 111.75 212.56 90.95 212.56 88.27 198.73 88.27 198.73 78.97 183.25 95.38 183.25 95.38 180 98.83 178.49 99.19 178.49 99.19 178.23 99.25 175.4 99.94 175.4 99.94 161.88 103.21 161.88 118.22 208.72 118.22 208.93 117.77 212.56 111.75"></polygon> <polygon class="cls-1" points="237.48 115.57 244.19 106.22 250.2 97.85 250.2 91.32 237.48 103.47 237.48 115.57"></polygon> <polygon class="cls-1" points="198.73 75.21 198.73 75.02 198.73 43.6 178.64 22.32 161.88 18.26 161.88 100.55 178.65 96.5 198.73 75.21"></polygon> <polygon class="cls-1" points="175.4 18.87 176.82 19.22 178.49 19.62 180 19.99 182.64 22.79 198.73 39.84 198.73 29.83 206.97 29.83 212.56 29.83 212.56 27.12 212.56 6.47 208.67 0 206.97 0 161.88 0 161.88 15.6 175.4 18.87 175.4 18.87"></polygon> <polygon class="cls-1" points="234.9 16.45 234.9 0 215.65 0 211.68 0 215.14 5.75 215.14 30.76 215.14 32.26 215.65 32.97 219.66 38.62 219.66 79.65 215.14 85.89 215.14 87.37 215.14 112.47 211.68 118.22 234.9 118.22 234.9 102.36 250.21 87.75 250.23 31.09 234.9 16.45"></polygon> <polyline class="cls-1" points="0 118.22 23.63 118.22 24.18 105.83 36.97 100.06 36.97 68.98 43.37 70.97 48.71 72.64 59.41 68.95 59.41 68.95 62.15 68 62.82 70.33 63.05 70.43 62.87 70.49 72.95 105.43 62.28 112.41 63.97 118.22 94.98 118.22 79.51 65.03 89.15 53.1 89.15 23.15 66.64 18.2 66.64 18.2 66.64 18.2 62.46 47.11 51.5 43.33 36.97 47.86 36.97 18.89 24.26 14.93 23.61 0 0 0"></polyline> <polyline class="cls-1" points="0 24.29 15.45 31.08 15.45 86.73 0 93.52"></polyline> <polygon class="cls-1" points="141.07 43.66 141.07 43.66 135.32 43.66 110.01 43.56 110.01 73.3 135.72 73.31 141.07 73.31 141.09 73.28 141.09 43.68 141.07 43.66"></polygon> <polygon class="cls-1" points="118.97 7.91 118.97 0 110.02 0 110.02 29.83 141.09 29.83 141.09 13.21 118.97 7.91"></polygon> <polygon class="cls-1" points="118.97 111.01 118.97 118.22 110.01 118.22 110.01 88.39 141.09 88.39 141.09 105.67 118.97 111.01"></polygon> <polygon class="cls-1" points="141.09 108.33 141.09 118.22 121.55 118.22 121.55 113.04 141.09 108.33"></polygon> <polygon class="cls-1" points="141.09 10.55 141.09 0 121.55 0 121.55 5.88 141.09 10.55"></polygon> </g> </g> </svg> 